<?xml version="1.0" standalone="no"?>
<!DOCTYPE svg PUBLIC "-//W3C//DTD SVG 20010904//EN"
 "http://www.w3.org/TR/2001/REC-SVG-20010904/DTD/svg10.dtd">
<svg version="1.0" xmlns="http://www.w3.org/2000/svg"
 width="512.000000pt" height="512.000000pt" viewBox="0 0 512.000000 512.000000"
 preserveAspectRatio="xMidYMid meet">
<metadata>
Created by potrace 1.14, written by Peter Selinger 2001-2017
</metadata>
<g transform="translate(0.000000,512.000000) scale(0.100000,-0.100000)"
fill="#000000" stroke="none">
<path d="M2768 5115 c-2 -2 -30 -6 -63 -10 -33 -3 -82 -11 -110 -16 -27 -5
-63 -12 -80 -15 -36 -6 -175 -42 -195 -51 -20 -8 -30 -11 -63 -18 -16 -3 -39
-12 -50 -20 -12 -8 -24 -14 -27 -13 -9 2 -84 -24 -115 -40 -16 -9 -35 -17 -41
-18 -18 -3 -221 -103 -289 -142 -63 -37 -286 -181 -295 -192 -3 -3 -25 -21
-50 -40 -112 -86 -286 -259 -370 -368 -33 -42 -67 -84 -75 -93 -8 -9 -15 -19
-15 -24 0 -4 -11 -23 -26 -42 -14 -18 -23 -33 -20 -33 3 0 -10 -25 -29 -55
-20 -30 -33 -55 -30 -55 3 0 -1 -13 -10 -30 -24 -46 -65 -165 -65 -188 0 -12
-5 -24 -10 -27 -6 -4 -8 -9 -6 -13 2 -4 -1 -38 -8 -77 -13 -73 -14 -242 -2
-310 4 -22 9 -52 12 -68 19 -116 104 -263 208 -357 157 -142 321 -203 531
-195 110 3 136 7 210 27 22 6 45 11 52 12 7 1 16 5 19 9 4 4 16 7 26 7 10 0
18 5 18 12 0 6 3 9 6 5 7 -7 127 52 132 65 2 4 8 8 13 8 9 0 67 42 123 90 42
35 254 248 295 295 69 81 147 217 175 306 35 114 39 279 10 398 -9 36 -17 72
-19 80 -7 36 -73 175 -97 206 -48 61 -67 80 -101 102 -48 30 -54 31 -202 40
-324 18 -515 -9 -602 -84 -24 -21 -97 -123 -88 -123 3 0 -1 -10 -9 -22 -28
-44 -57 -161 -55 -220 4 -115 40 -146 169 -146 47 0 114 5 150 12 83 16 257
14 288 -3 85 -46 39 -280 -77 -392 -67 -64 -164 -99 -268 -95 -122 5 -192 34
-255 105 -61 68 -125 212 -131 294 -1 9 -4 17 -7 17 -9 0 -15 202 -6 250 27
158 83 276 175 369 65 66 149 131 170 131 6 0 11 5 11 10 0 6 9 10 19 10 11 0
22 4 26 9 5 9 115 46 161 55 118 23 268 23 409 1 54 -8 101 -17 105 -20 3 -2
26 -6 50 -10 25 -4 51 -11 58 -17 6 -6 12 -8 12 -5 0 3 42 -7 93 -23 108 -32
355 -109 377 -117 17 -7 13 -6 104 -27 39 -9 86 -19 105 -22 66 -10 226 -12
249 -3 14 5 21 5 18 0 -14 -22 186 37 249 74 71 41 146 130 161 190 2 6 6 21
9 35 4 14 8 54 10 90 3 36 5 67 6 70 1 3 0 10 -1 15 -1 6 -3 29 -5 52 -3 50
-52 157 -87 193 -95 98 -200 149 -338 166 -19 3 -46 7 -60 11 -14 3 -43 7 -65
9 -48 5 -493 12 -497 9z"/>
<path d="M2618 4195 c-2 -3 15 -44 39 -92 43 -91 73 -170 73 -197 0 -9 4 -16
9 -16 4 0 11 -17 14 -37 4 -21 9 -51 12 -68 2 -16 6 -39 8 -50 1 -11 5 -24 8
-30 6 -12 3 -171 -4 -205 -18 -84 -28 -127 -36 -145 -33 -81 -78 -165 -112
-211 -22 -30 -37 -54 -33 -54 4 0 -47 -53 -112 -118 -103 -102 -208 -193 -309
-267 -59 -43 -341 -245 -359 -257 -93 -63 -254 -194 -309 -252 -72 -75 -167
-208 -167 -233 0 -8 -4 -11 -10 -8 -5 3 -10 1 -10 -5 0 -7 -11 -34 -24 -60
-26 -52 -82 -210 -90 -255 -3 -16 -10 -52 -16 -82 -6 -29 -9 -57 -6 -62 4 -5
2 -12 -3 -15 -12 -8 -11 -292 1 -355 5 -25 11 -62 14 -81 5 -27 33 -129 58
-205 19 -60 96 -215 134 -270 258 -374 631 -563 1102 -556 52 0 111 3 130 5
19 3 60 8 90 12 30 4 60 9 65 12 6 4 21 8 35 10 19 2 110 26 140 37 3 1 20 6
38 10 17 4 32 10 32 14 0 4 8 7 18 8 28 2 220 92 299 139 17 10 53 32 80 48
26 16 50 32 53 35 3 3 28 22 55 41 28 19 55 39 61 45 7 5 31 26 55 45 47 36
223 211 274 270 96 111 201 269 265 396 25 49 50 92 55 96 6 4 6 8 2 8 -5 0
-2 12 6 28 23 43 47 102 47 113 0 6 6 25 14 42 8 18 19 52 25 77 7 25 14 52
16 60 2 8 4 15 5 15 2 0 7 24 14 70 4 23 9 52 11 65 27 129 27 537 0 579 -2 4
-6 26 -10 51 -4 25 -9 49 -12 54 -4 5 -7 19 -8 30 -1 12 -4 28 -7 36 -3 8 -11
35 -19 60 -7 25 -16 49 -21 55 -4 5 -8 16 -8 25 0 20 -81 202 -99 224 -8 9
-11 16 -7 16 3 0 -16 36 -44 81 -27 44 -50 83 -50 85 0 3 -5 10 -10 17 -6 7
-40 53 -76 102 -125 170 -264 316 -474 496 -14 12 -41 33 -60 48 -19 14 -37
28 -40 31 -16 17 -89 70 -97 70 -5 0 -15 9 -23 20 -8 11 -18 20 -23 20 -9 0
-92 56 -115 78 -7 6 -19 12 -27 12 -7 0 -15 3 -17 8 -4 10 -86 62 -98 62 -5 0
-10 4 -10 9 0 5 -8 11 -17 14 -10 4 -45 22 -78 42 -33 20 -68 39 -77 42 -10 3
-18 10 -18 15 0 5 -4 7 -9 4 -5 -4 -11 -3 -13 1 -4 10 -185 103 -190 98z
m1186 -1107 c167 -55 238 -171 236 -388 0 -36 -2 -78 -6 -95 -28 -149 -190
-276 -416 -326 -116 -26 -317 -32 -443 -13 -50 8 -101 16 -115 18 -14 2 -54
11 -90 21 -36 9 -75 20 -87 22 -13 3 -23 10 -23 15 0 5 -5 6 -10 3 -6 -4 -17
-1 -25 5 -8 7 -15 9 -15 5 0 -4 -7 -2 -15 5 -8 7 -15 10 -15 7 0 -3 -30 5 -66
17 -75 25 -173 33 -204 16 -12 -6 -25 -22 -30 -35 -15 -39 -23 -247 -23 -580
0 -346 3 -414 28 -535 3 -14 8 -45 11 -68 11 -84 70 -223 105 -252 8 -7 80
-119 78 -122 -1 -2 6 -20 15 -42 9 -21 18 -49 20 -62 3 -13 7 -28 11 -34 8
-13 8 -134 0 -185 -7 -41 -41 -128 -60 -154 -49 -66 -152 -147 -200 -157 -5
-1 -23 -5 -40 -9 -37 -8 -40 -8 -97 -1 -46 5 -120 36 -145 61 -7 7 -16 15 -20
17 -14 6 -70 82 -90 123 -22 42 -52 127 -58 160 -7 34 -14 69 -20 95 -8 36 -4
265 5 265 3 0 7 26 14 84 4 29 8 57 11 61 2 4 7 22 10 41 7 47 20 107 29 146
4 16 34 157 41 193 2 8 4 15 6 15 1 0 3 9 5 20 3 21 5 32 24 105 6 25 12 52
14 60 1 8 6 31 10 50 4 19 9 44 11 55 2 11 4 20 5 20 1 0 3 9 5 20 1 11 5 34
9 50 36 177 49 317 34 371 -10 37 -40 49 -62 25 -16 -17 -86 -153 -90 -174 -2
-7 -15 -38 -29 -71 -15 -32 -27 -60 -27 -62 0 -16 -104 -214 -141 -269 -55
-80 -84 -109 -136 -136 -48 -24 -84 -24 -134 2 -113 57 -144 144 -97 269 21
54 88 167 123 206 6 6 29 33 51 60 75 87 166 176 283 274 29 25 59 50 65 56 6
5 47 37 91 70 44 32 89 67 99 77 11 9 26 17 33 17 7 0 13 5 13 10 0 6 8 14 18
17 9 4 47 28 85 55 37 26 68 48 70 48 6 0 221 129 234 140 7 5 18 10 26 10 7
0 17 4 22 9 31 29 369 184 379 173 3 -3 6 1 6 8 0 7 3 10 7 7 3 -4 17 0 30 8
13 9 23 13 23 11 0 -3 33 7 73 20 83 29 79 28 132 39 22 4 49 10 60 12 116 28
287 29 369 1z"/>
</g>
</svg>
