<?xml version="1.0" encoding="UTF-8"?>
<svg width="50px" height="50px" viewBox="0 0 50 50" version="1.1" xmlns="http://www.w3.org/2000/svg" xmlns:xlink="http://www.w3.org/1999/xlink">
    <title>Shape</title>
    <g id="Live" stroke="none" stroke-width="1" fill="none" fill-rule="evenodd">
        <g id="GlycerinTears_Website" transform="translate(-1409, -63)" fill="#FFFFFF" fill-rule="nonzero">
            <g id="Instagram_Glyph_White" transform="translate(1409, 63)">
                <path d="M14.6461888,0.174844634 C11.9861618,0.300345068 10.1696435,0.724846535 8.58162738,1.34884869 C6.93811075,1.98935091 5.54509665,2.84885388 4.15908263,4.23985869 C2.7730686,5.63086349 1.91955996,7.02486831 1.28355353,8.670874 C0.668047298,10.2623795 0.251043078,12.0803858 0.133541889,14.741895 C0.0160407003,17.4034042 -0.00995956277,18.2589071 0.00304056879,25.0479306 C0.0160407003,31.8369541 0.0460410039,32.687957 0.175042309,35.3549662 C0.302043595,38.0144754 0.725047875,39.8304817 1.34905419,41.4189872 C1.99056068,43.0624929 2.84906937,44.4549977 4.24058345,45.8415025 C5.63209753,47.2280073 7.02511163,48.0795102 8.67512833,48.7165124 C10.2651444,49.3310145 12.0836628,49.750016 14.7446897,49.8665164 C17.4057167,49.9830168 18.2622253,50.0100169 25.049294,49.9970168 C31.8363627,49.9840168 32.6908714,49.9540167 35.3573983,49.8275163 C38.0239253,49.7010158 39.8304436,49.2750144 41.4194597,48.6540122 C43.0629763,48.01101 44.4564904,47.154007 45.8420044,45.7620022 C47.2275185,44.3699974 48.0805271,42.9749926 48.7160335,41.3279869 C49.3320398,39.7379814 49.750544,37.9194751 49.8660452,35.2604659 C49.9825463,32.5919567 50.0100466,31.7399537 49.9970465,24.9519303 C49.9840464,18.1639068 49.9535461,17.3129039 49.8270448,14.6468947 C49.7005435,11.9808854 49.2770392,10.1703792 48.6535329,8.58087369 C48.0110264,6.93736801 47.1535177,5.5458632 45.7625036,4.1583584 C44.3714896,2.77085361 42.9754754,1.91835066 41.3289588,1.28434847 C39.7379427,0.668846342 37.9204243,0.249344892 35.2593974,0.134344494 C32.5983704,0.0193440966 31.7418618,-0.0101560054 24.952293,0.00284403958 C18.1627243,0.0158440845 17.3127157,0.0448441848 14.6461888,0.174844634 M14.9381917,45.3690009 C12.500667,45.2630005 11.1771536,44.8579991 10.2951447,44.5189979 C9.1271329,44.0689964 8.29512448,43.5249945 7.41611559,42.6544915 C6.53710669,41.7839885 5.99710123,40.9489856 5.54109661,39.7834815 C5.19859315,38.9014785 4.78608897,37.5794739 4.67208782,35.1419655 C4.54808656,32.5074564 4.5220863,31.7164537 4.50758615,25.0419306 C4.49308601,18.3674075 4.51858626,17.5774048 4.63408743,14.9418957 C4.73808849,12.5063873 5.14559261,11.1813827 5.48409604,10.2998796 C5.93410059,9.13037559 6.47610607,8.29987272 7.3486149,7.42136968 C8.22112373,6.54286665 9.05363216,6.00186478 10.220144,5.5458632 C11.1011529,5.20186201 12.4231663,4.7928606 14.8596909,4.6768602 C17.4962176,4.55185976 18.2862256,4.52685968 24.9597931,4.51235963 C31.6333607,4.49785958 32.4253687,4.52285966 35.0628954,4.63886006 C37.49842,4.74486043 38.8239334,5.14836183 39.7044423,5.488863 C40.8729542,5.93886456 41.7044626,6.47936643 42.5829715,7.35336945 C43.4614804,8.22737247 44.0029858,9.05687534 44.4589904,10.2258794 C44.8034939,11.1043824 45.2124981,12.425887 45.3274992,14.8638954 C45.4530005,17.5004045 45.4815008,18.2909073 45.4935009,24.9639303 C45.505501,31.6369534 45.4820008,32.4294561 45.3664996,35.0639652 C45.2599986,37.5014737 44.8559945,38.8254782 44.516491,39.7084813 C44.0664865,40.8759853 43.523981,41.7084882 42.6509722,42.5864912 C41.7779633,43.4644943 40.9464549,44.0054961 39.7794431,44.4614977 C38.8994342,44.8049989 37.5759208,45.2150003 35.1413962,45.3310007 C32.5048695,45.4550011 31.7148615,45.4810012 25.0387939,45.4955013 C18.3627264,45.5100013 17.5752184,45.4830012 14.9386917,45.3690009 M35.3188937,11.6383843 C35.3209229,12.8518636 36.0537884,13.9446175 37.1757176,14.4070326 C38.2976468,14.8694477 39.5876606,14.6104452 40.4441522,13.7508126 C41.3006437,12.89118 41.5549154,11.6002337 41.0883859,10.4800153 C40.6218564,9.35979688 39.5264149,8.6309486 38.3129283,8.63336784 C36.6564471,8.63668451 35.3161338,9.98191313 35.3188937,11.6383843 M12.1636398,25.0249305 C12.1776638,32.114955 17.935722,37.8494749 25.0242938,37.8359986 C32.1128655,37.8224748 37.8514236,32.0649549 37.8379472,24.9749304 C37.8244233,17.8849059 32.064865,12.148886 24.9752933,12.1628605 C17.8857215,12.1768861 12.1501635,17.935906 12.1636398,25.0249305 M16.6666925,25.0159305 C16.6576055,20.4134629 20.3812843,16.675044 24.9837825,16.6659176 C29.5862808,16.6568246 33.3247294,20.3804737 33.3338619,24.9829413 C33.342961,29.5854089 29.6192919,33.3238375 25.0167937,33.3329777 C22.8065076,33.3376051 20.6849329,32.4638946 19.1189298,30.9040908 C17.5529266,29.344287 16.6708159,27.2262029 16.6666925,25.0159305" id="Shape"></path>
            </g>
        </g>
    </g>
</svg>